<mxfile host="Electron" modified="2023-12-13T19:25:56.103Z" agent="Mozilla/5.0 (Windows NT 10.0; Win64; x64) AppleWebKit/537.36 (KHTML, like Gecko) draw.io/22.1.2 Chrome/114.0.5735.289 Electron/25.9.4 Safari/537.36" etag="apEhY6-ZaxG0vJN5cmgQ" version="22.1.2" type="device">
  <diagram name="Page-1" id="7oFCiNAd26EvE6YhQAw5">
    <mxGraphModel dx="2464" dy="1990" grid="1" gridSize="10" guides="1" tooltips="1" connect="1" arrows="1" fold="1" page="1" pageScale="2" pageWidth="850" pageHeight="1100" math="0" shadow="0">
      <root>
        <mxCell id="0" />
        <mxCell id="1" parent="0" />
        <mxCell id="Tme-Nr2etmvag8gRahso-1" value="&lt;b&gt;mayo_verify_datapath&lt;/b&gt;" style="rounded=0;whiteSpace=wrap;html=1;" parent="1" vertex="1">
          <mxGeometry x="400" y="340" width="310" height="420" as="geometry" />
        </mxCell>
        <mxCell id="Tme-Nr2etmvag8gRahso-2" value="" style="triangle;whiteSpace=wrap;html=1;direction=north;" parent="1" vertex="1">
          <mxGeometry x="540" y="730" width="30" height="30" as="geometry" />
        </mxCell>
        <mxCell id="Tme-Nr2etmvag8gRahso-3" value="rst" style="text;html=1;strokeColor=none;fillColor=none;align=center;verticalAlign=middle;whiteSpace=wrap;rounded=0;" parent="1" vertex="1">
          <mxGeometry x="491" y="740" width="37" height="20" as="geometry" />
        </mxCell>
        <mxCell id="Tme-Nr2etmvag8gRahso-14" value="&lt;b&gt;mayo_verify_controller&lt;/b&gt;" style="rounded=0;whiteSpace=wrap;html=1;" parent="1" vertex="1">
          <mxGeometry x="910" y="340" width="310" height="420" as="geometry" />
        </mxCell>
        <mxCell id="Tme-Nr2etmvag8gRahso-15" value="" style="triangle;whiteSpace=wrap;html=1;direction=north;" parent="1" vertex="1">
          <mxGeometry x="1050" y="730" width="30" height="30" as="geometry" />
        </mxCell>
        <mxCell id="Tme-Nr2etmvag8gRahso-16" value="rst" style="text;html=1;strokeColor=none;fillColor=none;align=center;verticalAlign=middle;whiteSpace=wrap;rounded=0;" parent="1" vertex="1">
          <mxGeometry x="1080" y="740" width="60" height="20" as="geometry" />
        </mxCell>
        <mxCell id="Tme-Nr2etmvag8gRahso-17" value="en" style="text;html=1;strokeColor=none;fillColor=none;align=center;verticalAlign=middle;whiteSpace=wrap;rounded=0;" parent="1" vertex="1">
          <mxGeometry x="571" y="740" width="60" height="20" as="geometry" />
        </mxCell>
        <mxCell id="Tme-Nr2etmvag8gRahso-18" value="load_p_storeage" style="text;html=1;strokeColor=none;fillColor=none;align=center;verticalAlign=middle;whiteSpace=wrap;rounded=0;" parent="1" vertex="1">
          <mxGeometry x="620" y="363" width="90" height="20" as="geometry" />
        </mxCell>
        <mxCell id="Tme-Nr2etmvag8gRahso-22" style="edgeStyle=orthogonalEdgeStyle;rounded=0;orthogonalLoop=1;jettySize=auto;html=1;entryX=1;entryY=0.5;entryDx=0;entryDy=0;" parent="1" source="Tme-Nr2etmvag8gRahso-19" target="Tme-Nr2etmvag8gRahso-18" edge="1">
          <mxGeometry relative="1" as="geometry" />
        </mxCell>
        <mxCell id="Tme-Nr2etmvag8gRahso-19" value="load_p_storeage" style="text;html=1;strokeColor=none;fillColor=none;align=center;verticalAlign=middle;whiteSpace=wrap;rounded=0;" parent="1" vertex="1">
          <mxGeometry x="910" y="363" width="90" height="20" as="geometry" />
        </mxCell>
        <mxCell id="Tme-Nr2etmvag8gRahso-20" value="load_s_storeage" style="text;html=1;strokeColor=none;fillColor=none;align=center;verticalAlign=middle;whiteSpace=wrap;rounded=0;" parent="1" vertex="1">
          <mxGeometry x="620" y="383" width="90" height="20" as="geometry" />
        </mxCell>
        <mxCell id="Tme-Nr2etmvag8gRahso-23" style="edgeStyle=orthogonalEdgeStyle;rounded=0;orthogonalLoop=1;jettySize=auto;html=1;entryX=1;entryY=0.5;entryDx=0;entryDy=0;" parent="1" source="Tme-Nr2etmvag8gRahso-21" target="Tme-Nr2etmvag8gRahso-20" edge="1">
          <mxGeometry relative="1" as="geometry" />
        </mxCell>
        <mxCell id="Tme-Nr2etmvag8gRahso-21" value="load_s_storeage" style="text;html=1;strokeColor=none;fillColor=none;align=center;verticalAlign=middle;whiteSpace=wrap;rounded=0;" parent="1" vertex="1">
          <mxGeometry x="910" y="383" width="90" height="20" as="geometry" />
        </mxCell>
        <mxCell id="Tme-Nr2etmvag8gRahso-29" style="edgeStyle=orthogonalEdgeStyle;rounded=0;orthogonalLoop=1;jettySize=auto;html=1;entryX=0;entryY=0.5;entryDx=0;entryDy=0;" parent="1" source="Tme-Nr2etmvag8gRahso-24" target="Tme-Nr2etmvag8gRahso-28" edge="1">
          <mxGeometry relative="1" as="geometry" />
        </mxCell>
        <mxCell id="Tme-Nr2etmvag8gRahso-24" value="p_rdy_data_in" style="text;html=1;strokeColor=none;fillColor=none;align=center;verticalAlign=middle;whiteSpace=wrap;rounded=0;" parent="1" vertex="1">
          <mxGeometry x="620" y="440" width="90" height="20" as="geometry" />
        </mxCell>
        <mxCell id="Tme-Nr2etmvag8gRahso-26" value="rd_data_in" style="text;html=1;strokeColor=none;fillColor=none;align=center;verticalAlign=middle;whiteSpace=wrap;rounded=0;" parent="1" vertex="1">
          <mxGeometry x="1130" y="370" width="90" height="20" as="geometry" />
        </mxCell>
        <mxCell id="Tme-Nr2etmvag8gRahso-28" value="p_rdy_data_in" style="text;html=1;strokeColor=none;fillColor=none;align=center;verticalAlign=middle;whiteSpace=wrap;rounded=0;" parent="1" vertex="1">
          <mxGeometry x="910" y="440" width="80" height="20" as="geometry" />
        </mxCell>
        <mxCell id="Tme-Nr2etmvag8gRahso-35" style="edgeStyle=orthogonalEdgeStyle;rounded=0;orthogonalLoop=1;jettySize=auto;html=1;entryX=0;entryY=0.5;entryDx=0;entryDy=0;" parent="1" source="Tme-Nr2etmvag8gRahso-31" target="Tme-Nr2etmvag8gRahso-33" edge="1">
          <mxGeometry relative="1" as="geometry" />
        </mxCell>
        <mxCell id="Tme-Nr2etmvag8gRahso-31" value="done_p_storage" style="text;html=1;strokeColor=none;fillColor=none;align=center;verticalAlign=middle;whiteSpace=wrap;rounded=0;" parent="1" vertex="1">
          <mxGeometry x="620" y="460" width="90" height="20" as="geometry" />
        </mxCell>
        <mxCell id="Tme-Nr2etmvag8gRahso-36" style="edgeStyle=orthogonalEdgeStyle;rounded=0;orthogonalLoop=1;jettySize=auto;html=1;entryX=0;entryY=0.5;entryDx=0;entryDy=0;" parent="1" source="Tme-Nr2etmvag8gRahso-32" target="Tme-Nr2etmvag8gRahso-34" edge="1">
          <mxGeometry relative="1" as="geometry" />
        </mxCell>
        <mxCell id="Tme-Nr2etmvag8gRahso-32" value="done_s_storage" style="text;html=1;strokeColor=none;fillColor=none;align=center;verticalAlign=middle;whiteSpace=wrap;rounded=0;" parent="1" vertex="1">
          <mxGeometry x="620" y="480" width="90" height="20" as="geometry" />
        </mxCell>
        <mxCell id="Tme-Nr2etmvag8gRahso-33" value="done_p_storage" style="text;html=1;strokeColor=none;fillColor=none;align=center;verticalAlign=middle;whiteSpace=wrap;rounded=0;" parent="1" vertex="1">
          <mxGeometry x="910" y="460" width="90" height="20" as="geometry" />
        </mxCell>
        <mxCell id="Tme-Nr2etmvag8gRahso-34" value="done_s_storage" style="text;html=1;strokeColor=none;fillColor=none;align=center;verticalAlign=middle;whiteSpace=wrap;rounded=0;" parent="1" vertex="1">
          <mxGeometry x="910" y="480" width="90" height="20" as="geometry" />
        </mxCell>
        <mxCell id="Tme-Nr2etmvag8gRahso-39" style="edgeStyle=orthogonalEdgeStyle;rounded=0;orthogonalLoop=1;jettySize=auto;html=1;entryX=0;entryY=0.5;entryDx=0;entryDy=0;" parent="1" source="Tme-Nr2etmvag8gRahso-37" target="Tme-Nr2etmvag8gRahso-38" edge="1">
          <mxGeometry relative="1" as="geometry" />
        </mxCell>
        <mxCell id="Tme-Nr2etmvag8gRahso-37" value="done_compute_y_long" style="text;html=1;strokeColor=none;fillColor=none;align=center;verticalAlign=middle;whiteSpace=wrap;rounded=0;" parent="1" vertex="1">
          <mxGeometry x="580" y="500" width="130" height="20" as="geometry" />
        </mxCell>
        <mxCell id="Tme-Nr2etmvag8gRahso-38" value="done_compute_y_long" style="text;html=1;strokeColor=none;fillColor=none;align=center;verticalAlign=middle;whiteSpace=wrap;rounded=0;" parent="1" vertex="1">
          <mxGeometry x="910" y="500" width="120" height="20" as="geometry" />
        </mxCell>
        <mxCell id="Tme-Nr2etmvag8gRahso-51" style="edgeStyle=orthogonalEdgeStyle;rounded=0;orthogonalLoop=1;jettySize=auto;html=1;" parent="1" source="Tme-Nr2etmvag8gRahso-40" target="Tme-Nr2etmvag8gRahso-50" edge="1">
          <mxGeometry relative="1" as="geometry" />
        </mxCell>
        <mxCell id="Tme-Nr2etmvag8gRahso-75" style="edgeStyle=orthogonalEdgeStyle;rounded=0;orthogonalLoop=1;jettySize=auto;html=1;entryX=0;entryY=0.5;entryDx=0;entryDy=0;" parent="1" source="Tme-Nr2etmvag8gRahso-40" target="Tme-Nr2etmvag8gRahso-74" edge="1">
          <mxGeometry relative="1" as="geometry">
            <Array as="points">
              <mxPoint x="360" y="430" />
              <mxPoint x="360" y="310" />
              <mxPoint x="880" y="310" />
              <mxPoint x="880" y="353" />
            </Array>
          </mxGeometry>
        </mxCell>
        <mxCell id="Tme-Nr2etmvag8gRahso-40" value="rd_y" style="text;html=1;strokeColor=none;fillColor=none;align=center;verticalAlign=middle;whiteSpace=wrap;rounded=0;" parent="1" vertex="1">
          <mxGeometry x="400" y="420" width="50" height="20" as="geometry" />
        </mxCell>
        <mxCell id="Tme-Nr2etmvag8gRahso-48" style="edgeStyle=orthogonalEdgeStyle;rounded=0;orthogonalLoop=1;jettySize=auto;html=1;" parent="1" source="Tme-Nr2etmvag8gRahso-41" target="Tme-Nr2etmvag8gRahso-46" edge="1">
          <mxGeometry relative="1" as="geometry" />
        </mxCell>
        <mxCell id="Tme-Nr2etmvag8gRahso-49" value="/8" style="edgeLabel;html=1;align=center;verticalAlign=middle;resizable=0;points=[];" parent="Tme-Nr2etmvag8gRahso-48" vertex="1" connectable="0">
          <mxGeometry x="-0.0286" y="1" relative="1" as="geometry">
            <mxPoint x="14" y="-1" as="offset" />
          </mxGeometry>
        </mxCell>
        <mxCell id="Tme-Nr2etmvag8gRahso-41" value="y" style="text;html=1;strokeColor=none;fillColor=none;align=center;verticalAlign=middle;whiteSpace=wrap;rounded=0;" parent="1" vertex="1">
          <mxGeometry x="400" y="395" width="40" height="20" as="geometry" />
        </mxCell>
        <mxCell id="Tme-Nr2etmvag8gRahso-42" value="data_in" style="text;html=1;strokeColor=none;fillColor=none;align=center;verticalAlign=middle;whiteSpace=wrap;rounded=0;" parent="1" vertex="1">
          <mxGeometry x="400" y="370" width="60" height="20" as="geometry" />
        </mxCell>
        <mxCell id="Tme-Nr2etmvag8gRahso-44" style="edgeStyle=orthogonalEdgeStyle;rounded=0;orthogonalLoop=1;jettySize=auto;html=1;entryX=0;entryY=0.5;entryDx=0;entryDy=0;" parent="1" source="Tme-Nr2etmvag8gRahso-43" target="Tme-Nr2etmvag8gRahso-42" edge="1">
          <mxGeometry relative="1" as="geometry" />
        </mxCell>
        <mxCell id="Tme-Nr2etmvag8gRahso-45" value="/8" style="edgeLabel;html=1;align=center;verticalAlign=middle;resizable=0;points=[];" parent="Tme-Nr2etmvag8gRahso-44" vertex="1" connectable="0">
          <mxGeometry x="0.12" relative="1" as="geometry">
            <mxPoint as="offset" />
          </mxGeometry>
        </mxCell>
        <mxCell id="Tme-Nr2etmvag8gRahso-43" value="&lt;font color=&quot;#66cc00&quot;&gt;&lt;span style=&quot;font-size: 14px;&quot;&gt;&lt;b&gt;data_in&lt;br&gt;&lt;/b&gt;&lt;/span&gt;&lt;/font&gt;" style="text;html=1;align=center;verticalAlign=middle;resizable=0;points=[];autosize=1;strokeColor=none;fillColor=none;" parent="1" vertex="1">
          <mxGeometry x="280" y="365" width="70" height="30" as="geometry" />
        </mxCell>
        <mxCell id="Tme-Nr2etmvag8gRahso-46" value="&lt;span style=&quot;font-size: 14px;&quot;&gt;&lt;b style=&quot;&quot;&gt;&lt;font color=&quot;#ff0000&quot;&gt;y&lt;/font&gt;&lt;br&gt;&lt;/b&gt;&lt;/span&gt;" style="text;html=1;align=center;verticalAlign=middle;resizable=0;points=[];autosize=1;strokeColor=none;fillColor=none;" parent="1" vertex="1">
          <mxGeometry x="300" y="390" width="30" height="30" as="geometry" />
        </mxCell>
        <mxCell id="Tme-Nr2etmvag8gRahso-50" value="&lt;span style=&quot;font-size: 14px;&quot;&gt;&lt;b style=&quot;&quot;&gt;&lt;font color=&quot;#ff0000&quot;&gt;rd_y&lt;/font&gt;&lt;br&gt;&lt;/b&gt;&lt;/span&gt;" style="text;html=1;align=center;verticalAlign=middle;resizable=0;points=[];autosize=1;strokeColor=none;fillColor=none;" parent="1" vertex="1">
          <mxGeometry x="290" y="415" width="50" height="30" as="geometry" />
        </mxCell>
        <mxCell id="Tme-Nr2etmvag8gRahso-54" style="edgeStyle=orthogonalEdgeStyle;rounded=0;orthogonalLoop=1;jettySize=auto;html=1;entryX=0.5;entryY=1;entryDx=0;entryDy=0;" parent="1" source="Tme-Nr2etmvag8gRahso-52" target="Tme-Nr2etmvag8gRahso-17" edge="1">
          <mxGeometry relative="1" as="geometry">
            <Array as="points">
              <mxPoint x="795" y="780" />
              <mxPoint x="601" y="780" />
            </Array>
          </mxGeometry>
        </mxCell>
        <mxCell id="Tme-Nr2etmvag8gRahso-52" value="&lt;font color=&quot;#66cc00&quot;&gt;&lt;span style=&quot;font-size: 14px;&quot;&gt;&lt;b&gt;en&lt;br&gt;&lt;/b&gt;&lt;/span&gt;&lt;/font&gt;" style="text;html=1;align=center;verticalAlign=middle;resizable=0;points=[];autosize=1;strokeColor=none;fillColor=none;" parent="1" vertex="1">
          <mxGeometry x="775" y="800" width="40" height="30" as="geometry" />
        </mxCell>
        <mxCell id="Tme-Nr2etmvag8gRahso-55" style="edgeStyle=orthogonalEdgeStyle;rounded=0;orthogonalLoop=1;jettySize=auto;html=1;" parent="1" source="Tme-Nr2etmvag8gRahso-52" target="Tme-Nr2etmvag8gRahso-53" edge="1">
          <mxGeometry relative="1" as="geometry">
            <Array as="points">
              <mxPoint x="795" y="780" />
              <mxPoint x="1020" y="780" />
            </Array>
          </mxGeometry>
        </mxCell>
        <mxCell id="Tme-Nr2etmvag8gRahso-53" value="en" style="text;html=1;strokeColor=none;fillColor=none;align=center;verticalAlign=middle;whiteSpace=wrap;rounded=0;" parent="1" vertex="1">
          <mxGeometry x="990" y="740" width="60" height="20" as="geometry" />
        </mxCell>
        <mxCell id="Tme-Nr2etmvag8gRahso-57" style="edgeStyle=orthogonalEdgeStyle;rounded=0;orthogonalLoop=1;jettySize=auto;html=1;entryX=0;entryY=0.5;entryDx=0;entryDy=0;" parent="1" source="Tme-Nr2etmvag8gRahso-56" target="Tme-Nr2etmvag8gRahso-2" edge="1">
          <mxGeometry relative="1" as="geometry">
            <Array as="points">
              <mxPoint x="795" y="840" />
              <mxPoint x="555" y="840" />
            </Array>
          </mxGeometry>
        </mxCell>
        <mxCell id="Tme-Nr2etmvag8gRahso-58" style="edgeStyle=orthogonalEdgeStyle;rounded=0;orthogonalLoop=1;jettySize=auto;html=1;entryX=0;entryY=0.5;entryDx=0;entryDy=0;" parent="1" source="Tme-Nr2etmvag8gRahso-56" target="Tme-Nr2etmvag8gRahso-15" edge="1">
          <mxGeometry relative="1" as="geometry">
            <Array as="points">
              <mxPoint x="795" y="840" />
              <mxPoint x="1065" y="840" />
            </Array>
          </mxGeometry>
        </mxCell>
        <mxCell id="Tme-Nr2etmvag8gRahso-56" value="&lt;font color=&quot;#66cc00&quot;&gt;&lt;span style=&quot;font-size: 14px;&quot;&gt;&lt;b&gt;clk&lt;br&gt;&lt;/b&gt;&lt;/span&gt;&lt;/font&gt;" style="text;html=1;align=center;verticalAlign=middle;resizable=0;points=[];autosize=1;strokeColor=none;fillColor=none;" parent="1" vertex="1">
          <mxGeometry x="775" y="850" width="40" height="30" as="geometry" />
        </mxCell>
        <mxCell id="Tme-Nr2etmvag8gRahso-60" style="edgeStyle=orthogonalEdgeStyle;rounded=0;orthogonalLoop=1;jettySize=auto;html=1;entryX=0.5;entryY=1;entryDx=0;entryDy=0;" parent="1" source="Tme-Nr2etmvag8gRahso-59" target="Tme-Nr2etmvag8gRahso-3" edge="1">
          <mxGeometry relative="1" as="geometry">
            <Array as="points">
              <mxPoint x="795" y="890" />
              <mxPoint x="510" y="890" />
            </Array>
          </mxGeometry>
        </mxCell>
        <mxCell id="Tme-Nr2etmvag8gRahso-61" style="edgeStyle=orthogonalEdgeStyle;rounded=0;orthogonalLoop=1;jettySize=auto;html=1;entryX=0.5;entryY=1;entryDx=0;entryDy=0;" parent="1" source="Tme-Nr2etmvag8gRahso-59" target="Tme-Nr2etmvag8gRahso-16" edge="1">
          <mxGeometry relative="1" as="geometry">
            <Array as="points">
              <mxPoint x="795" y="890" />
              <mxPoint x="1110" y="890" />
            </Array>
          </mxGeometry>
        </mxCell>
        <mxCell id="Tme-Nr2etmvag8gRahso-59" value="&lt;font color=&quot;#66cc00&quot;&gt;&lt;span style=&quot;font-size: 14px;&quot;&gt;&lt;b&gt;rst&lt;br&gt;&lt;/b&gt;&lt;/span&gt;&lt;/font&gt;" style="text;html=1;align=center;verticalAlign=middle;resizable=0;points=[];autosize=1;strokeColor=none;fillColor=none;" parent="1" vertex="1">
          <mxGeometry x="775" y="910" width="40" height="30" as="geometry" />
        </mxCell>
        <mxCell id="Tme-Nr2etmvag8gRahso-63" style="edgeStyle=orthogonalEdgeStyle;rounded=0;orthogonalLoop=1;jettySize=auto;html=1;" parent="1" source="Tme-Nr2etmvag8gRahso-62" target="Tme-Nr2etmvag8gRahso-26" edge="1">
          <mxGeometry relative="1" as="geometry" />
        </mxCell>
        <mxCell id="Tme-Nr2etmvag8gRahso-62" value="&lt;font color=&quot;#66cc00&quot;&gt;&lt;span style=&quot;font-size: 14px;&quot;&gt;&lt;b&gt;rd_data_in&lt;br&gt;&lt;/b&gt;&lt;/span&gt;&lt;/font&gt;" style="text;html=1;align=center;verticalAlign=middle;resizable=0;points=[];autosize=1;strokeColor=none;fillColor=none;" parent="1" vertex="1">
          <mxGeometry x="1280" y="365" width="90" height="30" as="geometry" />
        </mxCell>
        <mxCell id="Tme-Nr2etmvag8gRahso-64" value="&lt;span style=&quot;font-size: 14px;&quot;&gt;&lt;b style=&quot;&quot;&gt;&lt;font color=&quot;#ff0000&quot;&gt;rdy_data_in&lt;/font&gt;&lt;br&gt;&lt;/b&gt;&lt;/span&gt;" style="text;html=1;align=center;verticalAlign=middle;resizable=0;points=[];autosize=1;strokeColor=none;fillColor=none;" parent="1" vertex="1">
          <mxGeometry x="1275" y="390" width="100" height="30" as="geometry" />
        </mxCell>
        <mxCell id="Tme-Nr2etmvag8gRahso-66" style="edgeStyle=orthogonalEdgeStyle;rounded=0;orthogonalLoop=1;jettySize=auto;html=1;" parent="1" source="Tme-Nr2etmvag8gRahso-65" target="Tme-Nr2etmvag8gRahso-64" edge="1">
          <mxGeometry relative="1" as="geometry" />
        </mxCell>
        <mxCell id="Tme-Nr2etmvag8gRahso-65" value="rdy_data_in" style="text;html=1;strokeColor=none;fillColor=none;align=center;verticalAlign=middle;whiteSpace=wrap;rounded=0;" parent="1" vertex="1">
          <mxGeometry x="1130" y="395" width="90" height="20" as="geometry" />
        </mxCell>
        <mxCell id="Tme-Nr2etmvag8gRahso-67" value="en_compute_y_long" style="text;html=1;strokeColor=none;fillColor=none;align=center;verticalAlign=middle;whiteSpace=wrap;rounded=0;" parent="1" vertex="1">
          <mxGeometry x="600" y="402" width="110" height="20" as="geometry" />
        </mxCell>
        <mxCell id="Tme-Nr2etmvag8gRahso-68" value="en_collapse_y_long" style="text;html=1;strokeColor=none;fillColor=none;align=center;verticalAlign=middle;whiteSpace=wrap;rounded=0;" parent="1" vertex="1">
          <mxGeometry x="600" y="422" width="110" height="20" as="geometry" />
        </mxCell>
        <mxCell id="Tme-Nr2etmvag8gRahso-72" style="edgeStyle=orthogonalEdgeStyle;rounded=0;orthogonalLoop=1;jettySize=auto;html=1;entryX=1;entryY=0.5;entryDx=0;entryDy=0;" parent="1" source="Tme-Nr2etmvag8gRahso-69" target="Tme-Nr2etmvag8gRahso-67" edge="1">
          <mxGeometry relative="1" as="geometry" />
        </mxCell>
        <mxCell id="Tme-Nr2etmvag8gRahso-69" value="en_compute_y_long" style="text;html=1;strokeColor=none;fillColor=none;align=center;verticalAlign=middle;whiteSpace=wrap;rounded=0;" parent="1" vertex="1">
          <mxGeometry x="910" y="402" width="110" height="20" as="geometry" />
        </mxCell>
        <mxCell id="Tme-Nr2etmvag8gRahso-73" style="edgeStyle=orthogonalEdgeStyle;rounded=0;orthogonalLoop=1;jettySize=auto;html=1;entryX=1;entryY=0.5;entryDx=0;entryDy=0;" parent="1" source="Tme-Nr2etmvag8gRahso-70" target="Tme-Nr2etmvag8gRahso-68" edge="1">
          <mxGeometry relative="1" as="geometry" />
        </mxCell>
        <mxCell id="Tme-Nr2etmvag8gRahso-70" value="en_collapse_y_long" style="text;html=1;strokeColor=none;fillColor=none;align=center;verticalAlign=middle;whiteSpace=wrap;rounded=0;" parent="1" vertex="1">
          <mxGeometry x="910" y="422" width="110" height="20" as="geometry" />
        </mxCell>
        <mxCell id="Tme-Nr2etmvag8gRahso-74" value="rd_y" style="text;html=1;strokeColor=none;fillColor=none;align=center;verticalAlign=middle;whiteSpace=wrap;rounded=0;" parent="1" vertex="1">
          <mxGeometry x="910" y="343" width="40" height="20" as="geometry" />
        </mxCell>
      </root>
    </mxGraphModel>
  </diagram>
</mxfile>
